<svg width="72" height="72" viewBox="0 0 72 72" fill="none" xmlns="http://www.w3.org/2000/svg">
<rect width="72" height="72" rx="20" fill="#F87171"/>
<rect width="56" height="56" transform="translate(8 8)" fill="#F87171"/>
<path d="M32.1667 31.3333C33.2391 31.3333 34.3011 31.1221 35.2919 30.7117C36.2827 30.3013 37.183 29.6997 37.9414 28.9414C38.6997 28.183 39.3013 27.2827 39.7117 26.2919C40.1221 25.3011 40.3333 24.2391 40.3333 23.1667C40.3333 22.0942 40.1221 21.0322 39.7117 20.0414C39.3013 19.0506 38.6997 18.1503 37.9414 17.392C37.183 16.6336 36.2827 16.0321 35.2919 15.6217C34.3011 15.2112 33.2391 15 32.1667 15C30.0007 15 27.9235 15.8604 26.392 17.392C24.8604 18.9235 24 21.0007 24 23.1667C24 25.3326 24.8604 27.4098 26.392 28.9414C27.9235 30.4729 30.0007 31.3333 32.1667 31.3333Z" fill="white" stroke="white" stroke-width="2" stroke-linecap="round" stroke-linejoin="round"/>
<path d="M47 27L54 34L61 27" stroke="white" stroke-width="4" stroke-linecap="round" stroke-linejoin="round"/>
<path d="M14.6667 55.6V57H49.6667V55.6C49.6667 50.3733 49.6667 47.76 48.6494 45.7627C47.7546 44.0066 46.3268 42.5788 44.5707 41.684C42.5734 40.6667 39.9601 40.6667 34.7334 40.6667H29.6001C24.3734 40.6667 21.7601 40.6667 19.7627 41.684C18.0066 42.5788 16.5789 44.0066 15.6841 45.7627C14.6667 47.76 14.6667 50.3733 14.6667 55.6Z" fill="white" stroke="white" stroke-width="2" stroke-linecap="round" stroke-linejoin="round"/>
</svg>
