<svg width="36" height="36" viewBox="0 0 36 36" fill="none" xmlns="http://www.w3.org/2000/svg">
<rect width="36" height="36" rx="10" fill="#34D399"/>
<rect width="24" height="24" transform="translate(6 6)" fill="#34D399"/>
<path d="M16.3572 16C16.8168 16 17.2719 15.9095 17.6966 15.7336C18.1212 15.5577 18.507 15.2999 18.8321 14.9749C19.1571 14.6499 19.4149 14.264 19.5908 13.8394C19.7666 13.4148 19.8572 12.9596 19.8572 12.5C19.8572 12.0404 19.7666 11.5852 19.5908 11.1606C19.4149 10.736 19.1571 10.3501 18.8321 10.0251C18.507 9.70012 18.1212 9.44231 17.6966 9.26642C17.2719 9.09053 16.8168 9 16.3572 9C15.4289 9 14.5387 9.36875 13.8823 10.0251C13.2259 10.6815 12.8572 11.5717 12.8572 12.5C12.8572 13.4283 13.2259 14.3185 13.8823 14.9749C14.5387 15.6313 15.4289 16 16.3572 16Z" fill="white" stroke="white" stroke-width="2" stroke-linecap="round" stroke-linejoin="round"/>
<path d="M22.7144 14.1429L25.7144 17.1429L28.7144 14.1429" stroke="white" stroke-width="2" stroke-linecap="round" stroke-linejoin="round"/>
<path d="M8.85718 26.4V27H23.8572V26.4C23.8572 24.16 23.8572 23.04 23.4212 22.184C23.0377 21.4314 22.4258 20.8195 21.6732 20.436C20.8172 20 19.6972 20 17.4572 20H15.2572C13.0172 20 11.8972 20 11.0412 20.436C10.2886 20.8195 9.67667 21.4314 9.29318 22.184C8.85718 23.04 8.85718 24.16 8.85718 26.4Z" fill="white" stroke="white" stroke-width="2" stroke-linecap="round" stroke-linejoin="round"/>
</svg>
