<svg width="36" height="36" viewBox="0 0 36 36" fill="none" xmlns="http://www.w3.org/2000/svg">
<rect width="36" height="36" rx="10" fill="#4A7CE9"/>
<path d="M13.8 17C16.1202 17 18 15.2097 18 13C18 10.7903 16.1202 9 13.8 9C11.4798 9 9.6 10.7903 9.6 13C9.6 15.2097 11.4798 17 13.8 17ZM27 15C27 16.7366 25.5234 18.1429 23.7 18.1429C22.8248 18.1429 21.9854 17.8117 21.3665 17.2223C20.7477 16.6329 20.4 15.8335 20.4 15C20.4 13.2634 21.8766 11.8571 23.7 11.8571C25.5234 11.8571 27 13.2634 27 15ZM13.8 18.1429C15.4404 18.1429 18.1098 18.6291 19.8606 19.5971C20.5758 20.2903 21 21.0463 21 21.8V25H6V21.8C6 19.368 11.1966 18.1429 13.8 18.1429ZM30 25H22.2V21.8C22.2 20.9909 21.8934 20.2457 21.4056 19.5811C22.3302 19.3846 23.2404 19.2857 23.9358 19.2857C26.172 19.2857 30 20.3069 30 22.3331V25Z" fill="white"/>
</svg>
