<svg width="36" height="36" viewBox="0 0 36 36" fill="none" xmlns="http://www.w3.org/2000/svg">
<rect width="36" height="36" rx="10" fill="#FFD700"/>
<path d="M22 22C22 20.895 18.866 20 15 20M22 22C22 23.105 18.866 24 15 24C11.134 24 8 23.105 8 22M22 22V26.937C22 28.076 18.866 29 15 29C11.134 29 8 28.077 8 26.937V22M22 22C25.824 22 29 21.013 29 20V10M15 20C11.134 20 8 20.895 8 22M15 20C10.582 20 7 19.013 7 18V13M15 11C10.582 11 7 11.895 7 13M7 13C7 14.105 10.582 15 15 15C15 16.013 18.253 17 22.077 17C25.901 17 29 16.013 29 15M29 10C29 8.895 25.9 8 22.077 8C18.254 8 15.154 8.895 15.154 10M29 10C29 11.105 25.9 12 22.077 12C18.254 12 15.154 11.105 15.154 10M15.154 10V20.166" stroke="white" stroke-width="2"/>
</svg>
