<svg width="36" height="36" viewBox="0 0 36 36" fill="none" xmlns="http://www.w3.org/2000/svg">
<rect width="36" height="36" rx="10" fill="#FF7F00"/>
<path d="M21.1244 11.4545C21.3875 11.6337 21.5685 11.91 21.6278 12.2227C21.6871 12.5354 21.6198 12.8589 21.4406 13.1219C21.2614 13.3849 20.9851 13.566 20.6724 13.6253C20.3597 13.6846 20.0363 13.6173 19.7732 13.4381C18.6653 12.685 17.3373 12.3242 16.0006 12.4134C14.664 12.5026 13.3956 13.0365 12.3976 13.9301C11.3996 14.8237 10.7293 16.0256 10.4936 17.3444C10.2579 18.6631 10.4703 20.0228 11.0969 21.2068C11.7236 22.3908 12.7285 23.3311 13.9514 23.8778C15.1744 24.4244 16.5452 24.5461 17.8454 24.2234C19.1456 23.9007 20.3003 23.1522 21.1258 22.097C21.9512 21.0419 22.3997 19.7409 22.4 18.4013C22.4 18.083 22.5264 17.7778 22.7515 17.5528C22.9765 17.3277 23.2818 17.2013 23.6 17.2013C23.9183 17.2013 24.2235 17.3277 24.4485 17.5528C24.6736 17.7778 24.8 18.083 24.8 18.4013C24.7997 20.2769 24.1717 22.0984 23.0161 23.5757C21.8604 25.053 20.2436 26.101 18.4232 26.5527C16.6029 27.0045 14.6837 26.834 12.9714 26.0684C11.2592 25.3029 9.85243 23.9863 8.97526 22.3285C8.09809 20.6707 7.80099 18.767 8.1313 16.9207C8.46161 15.0744 9.40032 13.3918 10.7979 12.1409C12.1954 10.8901 13.9714 10.1429 15.8429 10.0185C17.7143 9.8941 19.5736 10.3996 21.1244 11.4545Z" fill="white"/>
<path d="M20.6468 21.4086C20.514 21.4935 20.3658 21.5514 20.2107 21.5791C20.0555 21.6068 19.8964 21.6036 19.7425 21.5698C19.5885 21.536 19.4428 21.4722 19.3135 21.382C19.1842 21.2919 19.0739 21.1771 18.989 21.0444C18.9041 20.9116 18.8461 20.7634 18.8184 20.6082C18.7908 20.4531 18.7939 20.294 18.8278 20.14C18.8616 19.9861 18.9254 19.8403 19.0155 19.711C19.1057 19.5817 19.2204 19.4715 19.3532 19.3866L23.5316 16.7142C23.7997 16.5483 24.1222 16.4945 24.4296 16.5645C24.737 16.6345 25.0044 16.8227 25.1742 17.0883C25.344 17.3539 25.4024 17.6757 25.3369 17.984C25.2714 18.2924 25.0871 18.5625 24.824 18.7362L20.6468 21.4086Z" fill="white"/>
<path d="M27.0837 21.2933C27.2062 21.5827 27.2103 21.9086 27.0951 22.201C26.9799 22.4933 26.7546 22.7289 26.4677 22.8569C26.1807 22.985 25.855 22.9954 25.5605 22.8859C25.2659 22.7764 25.0261 22.5558 24.8925 22.2713L23.0829 18.2153C23.015 18.0709 22.9767 17.9145 22.97 17.7551C22.9634 17.5957 22.9886 17.4365 23.0442 17.287C23.0998 17.1374 23.1847 17.0005 23.2938 16.8841C23.403 16.7678 23.5342 16.6743 23.6799 16.6093C23.8256 16.5443 23.9828 16.509 24.1423 16.5054C24.3018 16.5019 24.4604 16.5302 24.6088 16.5886C24.7573 16.6471 24.8926 16.7346 25.0068 16.846C25.121 16.9574 25.2119 17.0904 25.2741 17.2373L27.0837 21.2933Z" fill="white"/>
</svg>
