<svg width="15" height="15" viewBox="0 0 15 15" fill="none" xmlns="http://www.w3.org/2000/svg">
<path d="M7.89551 1.25C8.3806 1.2502 8.78672 1.61786 8.83496 2.10059C8.9098 2.85037 9.78974 3.2143 10.373 2.7373C10.7488 2.43018 11.2965 2.45767 11.6396 2.80078L12.1992 3.36035C12.5423 3.70358 12.5691 4.25141 12.2617 4.62695C11.7849 5.21014 12.1497 6.08995 12.8994 6.16504C13.3821 6.2135 13.7498 6.61941 13.75 7.10449V7.89453C13.75 8.37984 13.3823 8.78669 12.8994 8.83496C12.1495 8.90978 11.7847 9.78971 12.2617 10.373C12.5691 10.7487 12.5424 11.2964 12.1992 11.6396L11.6396 12.1982C11.2965 12.5412 10.7496 12.5687 10.374 12.2617C9.7906 11.7843 8.91009 12.1485 8.83496 12.8984C8.78677 13.3816 8.38007 13.75 7.89453 13.75H7.10547C6.6202 13.75 6.21353 13.3822 6.16504 12.8994C6.08995 12.1497 5.21014 11.7848 4.62695 12.2617C4.25141 12.5691 3.70358 12.5423 3.36035 12.1992L2.80078 11.6396C2.45769 11.2965 2.43021 10.7488 2.7373 10.373C3.2143 9.78974 2.85037 8.9098 2.10059 8.83496C1.61789 8.78671 1.25022 8.38058 1.25 7.89551V7.10547C1.25 6.62012 1.61771 6.21357 2.10059 6.16504C2.85071 6.08991 3.2156 5.20946 2.73828 4.62598C2.43075 4.25013 2.45827 3.70267 2.80176 3.35938L3.36035 2.80078C3.7036 2.45773 4.25135 2.43001 4.62695 2.7373C5.21026 3.21434 6.08992 2.85042 6.16504 2.10059C6.21341 1.61783 6.61936 1.25019 7.10449 1.25H7.89551ZM7.5 5C6.11929 5 5 6.11929 5 7.5C5 8.88071 6.11929 10 7.5 10C8.88071 10 10 8.88071 10 7.5C10 6.11929 8.88071 5 7.5 5Z" fill="#222222"/>
</svg>
